<svg xmlns="http://www.w3.org/2000/svg" width="128" height="128" viewBox="0 0 128 128" id="empty-room-small" data-supported-dps="128x128">
  <path d="M88.78 0C39.53 1.3 0 41.1 0 90h90V0z" fill="#e8f3ff"/>
  <circle cx="77.5" cy="41.42" r="2.5" fill="#d0e8ff"/>
  <circle cx="69.5" cy="41.42" r="2.5" fill="#d0e8ff"/>
  <circle cx="61.5" cy="41.42" r="2.5" fill="#d0e8ff"/>
  <circle cx="53.5" cy="41.42" r="2.5" fill="#d0e8ff"/>
  <circle cx="45.5" cy="41.42" r="2.5" fill="#d0e8ff"/>
  <circle cx="37.5" cy="41.42" r="2.5" fill="#d0e8ff"/>
  <circle cx="29.5" cy="41.42" r="2.5" fill="#d0e8ff"/>
  <circle cx="21.5" cy="41.42" r="2.5" fill="#d0e8ff"/>
  <circle cx="13.5" cy="41.42" r="2.5" fill="#d0e8ff"/>
  <circle cx="5.5" cy="41.42" r="2.5" fill="#d0e8ff"/>
  <path fill="#38434f" d="M18 99h1v20h-1z"/>
  <path d="M12 119v-.94a2.06 2.06 0 012.06-2.06h8.88a2.06 2.06 0 012.06 2.06v.94h1v-.94a3.06 3.06 0 00-3.06-3.06h-8.88a3.06 3.06 0 00-3.06 3.06v.94z" fill="#38434f"/>
  <path d="M17 119.5a1.5 1.5 0 101.5-1.5 1.5 1.5 0 00-1.5 1.5zM10 119.5a1.5 1.5 0 101.5-1.5 1.5 1.5 0 00-1.5 1.5zM24 119.5a1.5 1.5 0 101.5-1.5 1.5 1.5 0 00-1.5 1.5z" fill="#464f6a"/>
  <path d="M12 91V70a5 5 0 015-5h13a5 5 0 015 5v23a8 8 0 01-8 8H9a5 5 0 01-5-5v-5z" fill="#6692b8"/>
  <path fill="#38434f" d="M52 99h1v20h-1z"/>
  <path d="M46 119v-.94a2.06 2.06 0 012.06-2.06h8.88a2.06 2.06 0 012.06 2.06v.94h1v-.94a3.06 3.06 0 00-3.06-3.06h-8.88a3.06 3.06 0 00-3.06 3.06v.94z" fill="#38434f"/>
  <path d="M51 119.5a1.5 1.5 0 101.5-1.5 1.5 1.5 0 00-1.5 1.5zM44 119.5a1.5 1.5 0 101.5-1.5 1.5 1.5 0 00-1.5 1.5zM58 119.5a1.5 1.5 0 101.5-1.5 1.5 1.5 0 00-1.5 1.5z" fill="#464f6a"/>
  <path d="M45 91V70a5 5 0 015-5h13a5 5 0 015 5v23a8 8 0 01-8 8H42a5 5 0 01-5-5v-5z" fill="#6692b8"/>
  <path fill="#6e6558" d="M0 93v2.98h70.13V128H73V93H0z"/>
  <path fill="#e9e5df" d="M0 85h73v10H0z"/>
  <path d="M6.74 82.94a3.78 3.78 0 012.62.92A4.66 4.66 0 0012.61 85h.49a4.66 4.66 0 003.25-1.14 3.75 3.75 0 012.65-.92c1.73 0 3.13.92 3.14 2.06H23c0-3.73-4.33-8-10-8S2.5 81.27 2.5 85h1.1c.01-1.14 1.4-2.06 3.14-2.06z" fill="#5b696b"/>
  <circle cx="9.51" cy="79.5" r=".5" fill="#1f2122"/>
  <circle cx="11.51" cy="79.5" r=".5" fill="#1f2122"/>
  <circle cx="14.51" cy="79.5" r=".5" fill="#1f2122"/>
  <circle cx="16.51" cy="79.5" r=".5" fill="#1f2122"/>
  <rect x="9.01" y="81" width="8" height="1" rx=".5" fill="#7ce3b3"/>
  <path fill="#c0d1e2" d="M90 0h38v98H90z"/>
  <path d="M93 15v10.61a13 13 0 014.88 4.25c2.78 3.62 2.33 5.93 5.12 8.14.12.09 3 4 3 4l3 6v20a9.61 9.61 0 01-1.69 5.44l-6.4 9.33L99 98h-6v17l35-12V3z" fill="#f6fbff"/>
  <path fill="#f5cea9" d="M91 98h2v2h-2z"/>
  <path fill="#3a8ce9" d="M91 100h2v8h-2z"/>
  <path d="M93 107h-1.77a.47.47 0 00-.45.5v1a.47.47 0 00.45.5H93z" fill="#0d2135" fill-rule="evenodd"/>
  <path fill="#dad6d7" d="M93 98h4v2h-4z"/>
  <path fill="#f5cea9" d="M85.5 88.07l5.5 4.1-3.69 2.81-4.91-2.69 3.1-4.22z"/>
  <path d="M108 36l-5 2c1 1.41 2 2.62 2.84 3.87l2.75-2.12a14.56 14.56 0 016-3 13 13 0 005.23-2c.32-.24.18-.76.18-.76h-7a8 8 0 00-5 2.01z" fill="#dad6d7"/>
  <path fill="#c7cfd7" d="M126 18h-1l-4 15h-16v1h17l4-16z"/>
  <path fill="#043a20" d="M83.94 90.19l6.87 4.26-.64-14.29-6.23 10.03z"/>
  <path d="M83.17 6.88c.31 0 .61.07.9.11a6.91 6.91 0 00-.9-.11z" fill="#f5cea9"/>
  <path d="M77.26 34.73c-.12-.16-.14-.18 0 0z" fill="#ef89b2"/>
  <path fill="#004d2a" d="M89 53h4v45h-4z"/>
  <path d="M89.9 10.82a8.21 8.21 0 00-13.24-1.34c-2.77 2.85-4 5.92-5.15 10.14-1.27 4.8-1.86 8.94-7.51 11.82a17.43 17.43 0 0013.16 2.91c-1-3.45.38-4.57 2.65-6.4.34-.28 8-1.95 8-1.92.21 0 2.06-.52 2.23-.54 2.17-5.71 1.96-10.64-.14-14.67z" fill="#4f1351"/>
  <path d="M93 25.61a7 7 0 00-2.29-.52 30.19 30.19 0 00-4.83.49c-1.56.25-3.13.51-4.67.89-1.9.47-4.19 1.44-4.77 3.5-.54 1.91.27 3.77 1.33 5.33 1.15 1.72 3 4.08 4.23 5.7a44.71 44.71 0 014 5 32.92 32.92 0 013 7h4V25.61z" fill="#ef89b2"/>
  <path d="M105 49.21l4-1.21-3-6s-2.88-3.91-3-4c-2.79-2.21-2.34-4.52-5.12-8.14A13 13 0 0093 25.61V53z" fill="#f5e3f0"/>
  <path d="M103.53 20.27c-.22.22-1 1.79-1.29 1.61-.19-.11.36-1.5.75-3.35.07-.32-.48-.71-.7-.09-.4 1.16-.55 1.63-.83 2.44-.06.15-.29.67-.47.65-.44-.07 0-2 .31-3.42a.44.44 0 00-.81-.3c-.16.32-.54 2.28-.7 3-.06.29-.08.77-.39.8s-.3-1-.36-1.5 0-1.57-.5-1.82c-.73-.35-.53 1.33-.51 1.59.07 1 .07 2.1.18 3.12-.57-.7-.89-1.83-1.83-2.12-.23-.07-.72.08-.49.47a8.89 8.89 0 011.11 2.3c.3 2.22 1 2.78.69 3.91-.09.3-4.67 9-4.67 9a31.41 31.41 0 01-4.39-2.48 34.62 34.62 0 01-3.75-2.7 22.09 22.09 0 00-3.71-2.67 3.11 3.11 0 00-4.44 3.54A7.62 7.62 0 0079.29 36c3 2.55 11.41 7.32 14.38 7.44a2.51 2.51 0 001.79-.63c.48-.46 1.58-1.35 2.81-4.7a56.26 56.26 0 002.59-8.46A15 15 0 01102 26c.45-.92.82-1.88 1.18-2.83a12.25 12.25 0 00.84-2.68.28.28 0 00-.49-.22z" fill="#f5cea9" fill-rule="evenodd"/>
  <path d="M93 100v9h10.46a1.87 1.87 0 001.94-1.82 2.08 2.08 0 00-1.73-2l-1.86-.36c-2.17-.42-4.38-2.44-4.71-3.58A5.46 5.46 0 0197 100z" fill="#cdddf0" fill-rule="evenodd"/>
  <path d="M105.42 107H93v2h10.82a1.83 1.83 0 001.58-2zM100.78 104.25c.07-.25-.4-.36-.46-.11l-.31 1.09a.19.19 0 00.14.23.22.22 0 00.32-.11l.31-1.1zM99.23 103.46c.14-.22-.29-.44-.42-.22s-.44.73-.6 1a.17.17 0 00.08.25.23.23 0 00.34 0c.15-.25.45-.73.6-1zM98.24 102.58c.2-.18-.16-.5-.34-.32l-.84.8a.18.18 0 000 .27.23.23 0 00.34.06l.84-.81zM97.38 101.41c.23-.13 0-.53-.24-.4l-1 .57a.18.18 0 00-.07.25.21.21 0 00.31.14l1-.56z" fill="#c7cfd7" fill-rule="evenodd"/>
  <path d="M89.17 104.05c-.32-.48-1.18-1.48-1.54-2a6.88 6.88 0 01-.94-6.12 1.84 1.84 0 01.88-1.12L83.36 91l-5.27 5.78a7.32 7.32 0 01-.69.82l10.6 8.6.57-.2s1.18-1.09.6-1.95z" fill="#2c64b2"/>
  <path fill="#0d2135" d="M88.6 106l.01.01-.01-.01zM78.24 96.86a.28.28 0 00-.15-.08.43.43 0 00-.44.11l-.56.62a.42.42 0 000 .6l9.08 8.08a1.79 1.79 0 002.4-.19z"/>
  <path d="M87.21 101.08c.23-.13 0-.54-.24-.42l-1 .56a.19.19 0 00-.06.26.23.23 0 00.31.15l1-.55zM86.67 99.58c.26-.07.12-.52-.13-.46l-1.12.27a.19.19 0 00-.13.23.24.24 0 00.27.23l1.11-.27zM86.4 98.05c.27 0 .24-.46 0-.46h-1.17a.2.2 0 00-.19.19c0 .13.06.28.2.28h1.17zM86.52 96.57c.26.08.36-.38.11-.45l-1.14-.33a.18.18 0 00-.23.13.23.23 0 00.12.32l1.14.33z" fill="#0d2135" fill-rule="evenodd"/>
  <path d="M84.73 21.25c-1.62-2.62-1.16-4.5-1.79-6.13s-1.17-1.93-4.13-2.6a5.85 5.85 0 01-2.39-1 5.7 5.7 0 00-.29 3.19c.23 1.49-.28 2.4-.11 3s1.08.3 1.31 1.52c.5 2.16.65 2.2 3 2.41 1.68.15 1.29 3.07.88 4.88 6.33 3.57 8-1.38 8-1.38a12.36 12.36 0 01-4.48-3.89z" fill="#f5cea9"/>
</svg>
